<?xml version="1.0" standalone="no"?>
<!DOCTYPE svg PUBLIC "-//W3C//DTD SVG 20010904//EN"
 "http://www.w3.org/TR/2001/REC-SVG-20010904/DTD/svg10.dtd">
<svg version="1.0" xmlns="http://www.w3.org/2000/svg"
 width="500.000000pt" height="500.000000pt" viewBox="0 0 500.000000 500.000000"
 preserveAspectRatio="xMidYMid meet">
<metadata>
Created by potrace 1.14, written by Peter Selinger 2001-2017
</metadata>
<g transform="translate(0.000000,500.000000) scale(0.100000,-0.100000)"
fill="#000000" stroke="none">
<path d="M2190 3444 c0 -12 7 -27 15 -34 18 -15 20 -40 3 -41 -18 -2 -21 -1
-40 6 -11 4 -18 3 -18 -5 0 -6 4 -9 9 -5 5 3 12 1 16 -5 3 -5 2 -10 -4 -10 -5
0 -18 -3 -28 -6 -15 -5 -15 -4 -3 5 26 18 -14 24 -52 8 -18 -8 -54 -22 -79
-31 -26 -9 -55 -26 -64 -36 -10 -11 -23 -20 -30 -20 -13 0 -61 -51 -57 -62 2
-8 -13 -12 -35 -9 -7 1 -17 -8 -23 -19 -6 -11 -7 -20 -3 -20 4 0 2 -5 -5 -12
-15 -15 -16 -31 0 -22 6 4 8 3 4 -4 -3 -5 -1 -12 6 -14 8 -3 6 -7 -5 -11 -11
-4 -17 -1 -17 8 0 19 -17 28 -26 14 -5 -8 -2 -10 7 -5 8 4 1 -2 -14 -15 -22
-17 -25 -24 -15 -30 22 -15 41 -10 34 7 -5 14 -4 15 9 4 14 -11 13 -14 -2 -25
-10 -7 -21 -11 -26 -8 -4 2 -14 -1 -22 -7 -8 -6 -19 -9 -25 -5 -14 9 -13 42 3
48 6 3 3 6 -8 6 -26 1 -31 -40 -10 -73 8 -12 12 -26 8 -29 -3 -4 -1 -7 5 -7 6
0 14 5 17 10 3 6 11 10 16 10 5 0 -7 -17 -28 -37 -21 -21 -47 -50 -58 -65 -18
-25 -26 -28 -78 -28 l-59 0 26 -31 26 -30 -45 -90 c-25 -49 -50 -89 -56 -89
-5 0 -8 -4 -5 -9 6 -9 -19 -67 -40 -91 -9 -11 -34 -15 -98 -14 -48 0 -88 3
-90 5 -2 2 2 24 10 49 7 25 29 101 47 170 l34 125 -95 3 c-52 1 -97 1 -99 -2
-3 -3 7 -17 21 -33 20 -20 25 -35 21 -53 -3 -14 -7 -34 -9 -45 -5 -25 -76
-294 -83 -312 -4 -10 19 -13 111 -13 114 0 150 8 169 38 13 20 29 14 17 -7
-16 -30 -14 -31 54 -31 61 0 64 1 76 30 15 35 31 40 23 8 -5 -23 -5 -23 11 -3
15 19 15 18 5 -13 -6 -18 -9 -44 -6 -57 2 -14 0 -25 -4 -25 -5 0 -4 -9 3 -19
7 -11 16 -17 22 -14 5 3 6 1 2 -5 -3 -6 -2 -13 3 -16 5 -3 8 -19 7 -35 -1 -17
1 -28 5 -25 4 2 10 -9 14 -26 4 -16 11 -33 17 -36 6 -4 8 -3 5 2 -3 6 -2 16 2
23 6 9 9 5 10 -13 3 -48 4 -56 12 -56 8 0 24 -40 21 -52 -1 -5 1 -7 6 -5 4 1
19 -9 32 -22 14 -13 19 -21 12 -16 -11 6 -11 3 -1 -13 7 -12 16 -19 20 -16 4
2 10 -4 14 -15 3 -11 13 -25 22 -33 12 -9 15 -9 9 0 -4 6 -2 12 3 12 6 0 11
-4 11 -8 0 -8 52 -42 65 -42 3 0 3 6 0 13 -3 6 2 1 12 -13 28 -39 74 -80 90
-80 8 0 11 4 8 10 -3 6 1 7 9 4 9 -3 16 -9 16 -13 0 -4 14 -22 31 -39 17 -18
27 -32 21 -32 -5 0 -23 15 -39 33 -16 18 -36 31 -45 29 -21 -4 -76 35 -83 59
-6 19 -45 33 -58 20 -4 -4 5 -16 19 -27 15 -10 38 -29 50 -40 13 -12 25 -20
27 -18 2 2 15 -6 28 -18 14 -13 38 -29 53 -36 27 -12 27 -14 11 -26 -17 -12
-17 -13 -1 -19 10 -4 25 1 38 13 23 21 48 27 48 10 0 -5 -7 -7 -15 -4 -8 4
-15 1 -15 -5 0 -6 13 -14 30 -17 16 -4 28 -11 27 -16 -1 -6 5 -12 13 -13 8 -2
29 -5 45 -8 38 -7 108 -30 157 -51 21 -9 40 -17 43 -17 25 -4 45 -13 45 -20 0
-5 10 -9 23 -9 12 0 36 -12 52 -26 25 -21 31 -23 33 -10 4 18 18 21 27 6 8
-13 35 -13 35 0 0 18 -42 48 -75 54 -18 4 -48 20 -66 37 -19 17 -28 28 -22 24
17 -9 124 -14 119 -6 -3 4 15 6 40 6 24 0 44 -4 44 -10 0 -5 4 -4 9 3 4 8 12
14 17 15 5 1 8 4 7 7 -2 7 97 4 102 -4 3 -3 2 -4 -1 -2 -7 5 -44 -25 -44 -35
0 -18 32 -17 47 1 10 11 22 20 28 20 5 0 4 -4 -4 -9 -8 -5 -11 -16 -6 -31 7
-21 7 -21 25 -3 12 13 15 22 7 31 -7 9 -6 11 8 6 12 -5 16 -4 12 3 -4 6 6 16
22 23 16 6 32 18 35 25 3 8 23 23 45 34 40 21 70 50 38 38 -10 -3 -17 -2 -17
3 0 6 8 10 18 10 10 0 26 6 37 14 11 7 24 14 30 14 5 0 11 6 14 13 2 7 -1 9
-8 5 -6 -4 -11 -2 -11 3 0 6 8 11 18 11 10 0 28 7 40 16 12 8 26 13 30 10 4
-2 14 4 21 16 7 11 8 17 2 13 -6 -3 -11 -2 -11 3 0 6 7 13 16 16 10 4 19 -4
28 -27 7 -17 17 -41 21 -52 7 -17 9 -18 12 -3 2 9 -3 30 -11 47 -21 39 -20 44
4 38 11 -3 23 -1 26 4 3 5 0 9 -5 9 -6 0 -11 5 -11 11 0 5 13 2 30 -8 17 -9
30 -21 30 -25 0 -4 9 -8 21 -8 18 0 19 2 5 15 -8 8 -20 15 -26 15 -12 0 -40
24 -40 35 0 3 5 3 12 -1 6 -4 8 -3 4 4 -3 5 -3 12 1 15 5 2 3 2 -4 1 -7 -2
-15 1 -18 7 -4 5 -3 8 2 7 17 -5 65 37 89 78 14 24 29 44 33 44 4 0 8 6 9 13
2 30 14 74 26 92 16 26 15 121 -1 118 -9 -2 -10 4 -4 20 6 17 18 23 47 25 47
4 54 10 61 53 7 47 10 48 28 6 8 -21 21 -52 29 -71 11 -27 29 -42 86 -70 39
-20 73 -36 76 -36 7 0 -3 33 -31 105 -67 172 -92 244 -86 253 5 9 78 89 188
210 23 26 40 48 39 50 -2 1 -34 3 -72 3 l-69 1 -42 -47 c-42 -46 -47 -48 -43
-12 1 16 -10 17 -122 17 -171 0 -197 3 -208 20 -16 25 -11 35 6 14 8 -10 13
-13 9 -7 -4 9 2 11 23 7 17 -4 32 -1 36 5 5 7 -2 11 -16 12 -60 3 -63 4 -60
24 3 14 1 17 -7 10 -6 -6 -12 -23 -13 -37 -1 -15 -6 -24 -11 -21 -4 2 -5 13
-2 23 3 10 -1 34 -9 53 -8 20 -12 37 -10 40 3 2 -2 7 -11 10 -10 5 -15 0 -16
-16 -1 -12 -5 -2 -10 22 -5 24 -16 55 -26 70 -10 14 -18 31 -18 36 0 6 -8 9
-18 9 -10 -1 -24 10 -33 27 -17 33 -88 109 -119 127 -20 11 -20 12 3 18 12 3
22 10 22 14 0 5 9 12 20 15 11 4 18 10 15 15 -7 11 -33 3 -56 -17 -9 -7 -19
-10 -24 -6 -4 5 -5 2 0 -6 5 -9 3 -12 -6 -9 -8 3 -13 11 -11 17 2 11 -13 16
-33 11 -24 -6 -60 1 -76 16 -9 8 -19 11 -20 6 -2 -6 -26 1 -53 14 -28 13 -67
24 -87 24 -21 0 -40 4 -43 8 -3 5 -47 7 -98 5 -51 -2 -103 -4 -115 -5 -13 0
-23 -4 -23 -8 0 -5 -9 -8 -20 -7 -12 1 -18 6 -15 14 3 7 8 20 11 28 5 11 2 13
-10 9 -9 -4 -23 -22 -31 -40 -13 -32 -35 -47 -35 -24 0 6 -7 10 -15 10 -9 0
-12 -6 -8 -17 5 -15 3 -14 -10 2 -9 11 -17 25 -17 31 0 5 -7 19 -15 30 -14 19
-14 19 -15 -2z m530 -107 c25 -1 40 -7 40 -15 0 -7 -4 -10 -10 -7 -9 6 -14 -7
-11 -27 0 -4 -6 -5 -14 -2 -9 4 -14 13 -13 22 2 8 -3 17 -11 20 -8 3 -11 0 -7
-6 3 -6 2 -13 -4 -17 -5 -3 -10 1 -10 9 0 9 -5 16 -11 16 -5 0 -7 -4 -4 -10 3
-5 1 -10 -4 -10 -6 0 -11 4 -11 8 0 4 -15 14 -32 21 l-33 13 25 8 c16 4 33 2
47 -7 13 -7 41 -14 63 -16z m180 3 c0 -5 -5 -10 -11 -10 -5 0 -7 5 -4 10 3 6
8 10 11 10 2 0 4 -4 4 -10z m-516 -10 c24 -9 90 -20 146 -25 14 -1 41 -9 60
-17 19 -9 42 -18 50 -21 11 -3 8 -7 -10 -15 -14 -5 -32 -17 -39 -26 -20 -24
10 -21 42 4 43 34 73 21 83 -37 3 -15 9 -32 15 -37 10 -11 10 -9 13 39 1 36
27 41 67 13 15 -10 35 -19 46 -21 11 -1 32 -13 48 -25 15 -12 36 -22 45 -22
10 0 21 -7 24 -15 3 -9 21 -22 41 -31 19 -8 41 -25 50 -37 8 -13 27 -30 43
-38 50 -26 58 -63 15 -74 -35 -8 -12 -25 28 -18 21 3 29 -1 34 -17 3 -11 11
-20 16 -20 6 0 7 -4 4 -10 -3 -5 -33 -10 -67 -10 l-60 0 27 -36 27 -35 -22
-82 c-12 -45 -25 -98 -30 -117 -5 -19 -14 -53 -20 -75 -6 -22 -13 -48 -15 -58
-2 -10 -7 -27 -10 -38 -6 -17 -1 -19 58 -19 l64 0 13 60 c12 59 29 87 31 56 1
-9 2 -19 3 -23 1 -5 5 -24 9 -43 4 -19 20 -50 35 -68 30 -35 33 -54 14 -88 -6
-12 -8 -24 -5 -28 3 -3 2 -6 -4 -6 -5 0 -15 11 -21 25 -6 14 -16 25 -22 25
-14 0 -12 -12 6 -38 22 -32 3 -82 -32 -82 -35 0 -39 -19 -5 -26 37 -8 38 -16
7 -57 -14 -18 -25 -36 -25 -40 0 -4 -13 -23 -29 -42 -22 -24 -36 -32 -51 -28
-25 6 -27 -4 -6 -27 13 -14 11 -18 -18 -33 -18 -10 -42 -34 -55 -53 -13 -20
-26 -33 -29 -30 -9 8 -80 -31 -95 -53 -8 -11 -27 -22 -42 -25 -35 -6 -125 -35
-151 -49 -11 -6 -49 -12 -85 -14 -74 -5 -70 -5 -165 2 -114 7 -139 11 -164 24
-13 7 -34 11 -47 8 -14 -2 -25 1 -28 9 -3 8 -16 14 -28 14 -21 0 -20 2 10 22
24 15 30 24 23 31 -8 8 -17 5 -32 -10 -19 -19 -23 -19 -50 -6 -16 8 -30 18
-30 21 -1 4 -3 17 -4 30 -1 13 -7 28 -14 35 -8 8 -11 0 -11 -30 l0 -42 -29 10
c-17 6 -41 21 -54 34 -22 22 -74 50 -88 47 -4 -1 -14 13 -24 31 -10 18 -36 46
-58 62 -42 31 -47 52 -12 47 10 -1 26 0 34 3 23 9 -6 24 -36 19 -15 -3 -23 0
-23 10 0 7 -7 19 -15 26 -11 9 -12 17 -5 30 6 10 15 31 20 46 10 25 9 26 -7
13 -10 -8 -23 -20 -29 -28 -8 -11 -14 -8 -27 13 -25 37 -22 90 6 109 12 8 40
31 62 51 22 20 43 36 48 36 4 0 7 8 7 18 0 9 10 51 23 92 l23 75 18 -83 19
-82 47 0 c47 0 47 0 57 43 6 23 27 105 48 182 20 77 37 146 38 153 1 16 16 15
23 -1 3 -8 -14 -85 -37 -173 -23 -87 -44 -169 -46 -181 -5 -22 -3 -23 81 -23
48 0 107 5 131 11 42 11 94 52 99 80 2 8 6 21 9 29 3 8 17 58 31 110 35 134
36 162 7 197 -24 29 -44 32 -230 34 l-156 1 -14 -27 c-7 -15 -15 -34 -16 -44
-2 -9 -4 -17 -5 -18 -4 -4 -7 -21 -9 -38 0 -8 -6 -15 -11 -15 -6 0 -9 3 -8 8
1 4 -4 35 -11 70 l-14 62 -84 0 c-89 0 -91 -2 -51 -46 18 -21 19 -24 3 -85
-10 -35 -18 -71 -20 -79 -2 -8 -19 -75 -39 -148 -20 -73 -36 -140 -36 -149 0
-9 -3 -13 -7 -10 -9 9 -10 507 -1 507 3 0 9 8 11 18 4 15 6 14 12 -5 7 -23 35
-40 35 -22 0 6 -5 19 -10 29 -8 14 -6 26 7 47 16 25 23 28 63 25 48 -3 48 13
0 22 -14 2 -26 5 -28 5 -6 2 19 41 26 41 4 0 18 -18 32 -40 14 -22 31 -40 38
-40 8 0 1 17 -18 44 -31 43 -31 44 -13 65 15 18 25 20 60 15 52 -8 55 2 8 22
-32 13 -48 34 -26 34 5 0 32 23 59 50 27 28 54 50 60 50 11 0 45 18 82 42 14
9 41 20 60 23 19 3 41 11 49 18 15 13 16 13 -4 -35 -13 -34 15 -18 32 16 20
43 60 46 95 7 19 -22 23 -23 26 -9 2 9 -2 26 -8 37 -12 24 1 28 44 11z m430
-33 c10 -10 10 -15 1 -24 -14 -13 -45 2 -45 22 0 18 27 19 44 2z m62 -32 c20
-10 29 -23 29 -40 1 -14 -3 -25 -7 -25 -4 0 -8 6 -8 14 0 8 -9 18 -20 21 -11
3 -20 11 -20 16 0 6 -4 7 -10 4 -6 -3 -7 1 -4 9 7 19 5 19 40 1z m-951 -51
c-22 -15 -53 -39 -70 -53 -17 -15 -23 -18 -15 -7 20 26 60 66 60 60 0 -3 10 2
22 10 12 9 27 16 33 16 5 0 -8 -12 -30 -26z m1068 -47 c4 -27 3 -29 -7 -13 -6
10 -19 26 -28 35 -28 25 -23 45 6 26 14 -10 26 -29 29 -48z m-1134 -50 c-8 -7
-20 -12 -27 -9 -9 3 -6 8 10 16 28 15 35 12 17 -7z m1255 8 c-4 -8 -11 -12
-16 -9 -6 4 -5 10 3 15 19 12 19 11 13 -6z m-1379 -104 c-3 -6 -11 -11 -17
-11 -6 0 -6 6 2 15 14 17 26 13 15 -4z m1711 -241 c-8 -54 -30 -110 -42 -110
-7 0 -11 8 -9 18 2 9 11 44 19 77 8 33 12 64 9 70 -2 5 3 1 12 -10 8 -11 14
-31 11 -45z m-1154 -16 c3 -3 -3 -37 -13 -77 -11 -40 -22 -80 -24 -89 -3 -10
-7 -28 -10 -40 -5 -26 -35 -52 -46 -41 -4 5 -1 33 7 63 8 30 17 62 19 70 22
101 44 138 67 114z m965 -44 c-1 -11 -7 -20 -14 -20 -15 0 -15 2 -7 24 9 23
23 20 21 -4z m136 -143 c-10 -37 -20 -67 -23 -67 -12 0 -4 105 9 129 24 43 32
8 14 -62z m-1779 -228 c-3 -5 -1 -9 4 -9 5 0 9 -17 10 -37 l1 -38 -19 25 c-11
14 -20 40 -20 59 0 28 2 32 15 21 8 -7 12 -16 9 -21z m1706 -33 c0 -2 -7 -7
-16 -10 -8 -3 -12 -2 -9 4 6 10 25 14 25 6z m2 -69 c-9 -18 -21 9 -15 33 l7
25 6 -25 c4 -14 5 -29 2 -33z m8 -19 c0 -4 -9 -8 -19 -8 -11 0 -22 4 -25 8 -2
4 6 8 20 8 13 0 24 -4 24 -8z m-38 -50 c-9 -9 -12 -7 -12 12 0 19 3 21 12 12
9 -9 9 -15 0 -24z m-12 -25 c-2 -20 -57 -117 -69 -121 -8 -3 -11 0 -7 7 4 6 1
11 -8 11 -9 0 -14 8 -13 20 1 22 13 27 20 8 4 -9 12 -5 26 12 24 29 28 48 6
30 -23 -19 -18 -3 7 20 22 20 38 26 38 13z m-1531 -135 c14 -23 18 -39 11 -43
-5 -3 -10 1 -10 10 0 8 -12 34 -26 58 -15 23 -20 35 -12 27 8 -8 25 -32 37
-52z m361 -273 c0 -8 -4 -15 -10 -15 -5 0 -7 7 -4 15 4 8 8 15 10 15 2 0 4 -7
4 -15z m84 -11 c3 -8 2 -12 -4 -9 -6 3 -10 10 -10 16 0 14 7 11 14 -7z m-39
-4 c11 -5 15 -9 8 -9 -6 -1 -18 -3 -26 -6 -8 -4 -14 0 -14 10 0 17 3 17 32 5z
m635 -24 c0 -3 -4 -8 -10 -11 -5 -3 -10 -1 -10 4 0 6 5 11 10 11 6 0 10 -2 10
-4z m-395 -16 c3 -6 -1 -7 -9 -4 -18 7 -21 14 -7 14 6 0 13 -4 16 -10z m-38
-16 c-3 -3 -12 -4 -19 -1 -8 3 -5 6 6 6 11 1 17 -2 13 -5z"/>
<path d="M2400 2862 c0 -4 11 -19 25 -34 25 -28 33 -72 15 -83 -6 -4 -8 -10
-5 -15 3 -5 0 -21 -6 -37 -11 -30 -17 -52 -24 -93 -2 -14 -15 -63 -29 -110
-14 -47 -27 -96 -30 -110 -11 -54 -24 -98 -30 -109 -4 -6 -3 -11 2 -11 9 0
147 145 163 171 4 7 6 16 3 20 -2 4 0 10 6 14 5 3 10 0 10 -7 0 -15 48 -17 70
-3 7 4 9 -2 6 -19 l-5 -26 129 0 128 0 10 28 c25 69 72 81 72 18 0 -21 18 -58
54 -114 30 -45 56 -79 58 -75 4 7 3 575 -1 596 0 4 -40 7 -87 7 l-86 0 26 -30
25 -30 -96 -188 c-101 -197 -110 -212 -99 -172 58 222 106 411 106 415 0 4
-26 5 -57 3 l-57 -3 -40 -67 c-53 -87 -62 -96 -63 -61 -1 16 -2 52 -4 81 l-2
52 -94 0 c-51 0 -93 -3 -93 -8z"/>
<path d="M1888 2213 c-12 -14 -15 -41 -14 -125 1 -94 3 -109 20 -121 18 -13
67 -9 83 6 10 10 11 72 1 78 -19 12 -38 -2 -38 -27 0 -25 -15 -33 -22 -11 -2
6 -3 46 -3 87 1 73 14 105 25 58 8 -33 38 -35 46 -4 14 59 -60 102 -98 59z"/>
<path d="M2023 2221 c-11 -8 -10 -254 1 -263 22 -15 36 6 36 55 0 53 6 59 14
15 6 -33 26 -72 33 -64 4 3 13 0 21 -6 13 -11 14 -8 7 22 -4 19 -12 41 -17 48
-6 6 -7 12 -4 12 4 0 2 10 -5 21 -9 17 -8 23 2 30 19 12 21 105 2 120 -15 14
-76 20 -90 10z m59 -53 c7 -19 -3 -58 -13 -52 -12 7 -12 64 0 64 5 0 11 -5 13
-12z"/>
<path d="M2165 2216 c-2 -6 -3 -66 -2 -133 l1 -121 33 -4 c44 -5 72 7 69 29
-2 13 -11 18 -29 17 -15 -1 -27 3 -28 7 -6 43 -2 54 21 59 33 8 35 46 3 44
-13 -1 -23 4 -24 10 0 6 -2 19 -4 29 -3 18 25 39 47 35 6 -2 12 6 13 16 0 17
-8 20 -48 21 -28 1 -50 -3 -52 -9z"/>
<path d="M2320 2209 c-6 -10 -9 -19 -6 -19 2 0 0 -17 -4 -37 -5 -21 -11 -63
-15 -93 -3 -30 -8 -63 -11 -72 -3 -10 3 -21 15 -28 18 -9 21 -7 27 17 4 16 9
31 11 35 7 14 32 -4 35 -25 2 -14 11 -23 25 -25 15 -2 21 1 19 10 -3 7 -7 36
-10 63 -10 93 -19 150 -26 170 -10 27 -47 29 -60 4z m40 -134 c0 -8 -4 -15 -8
-15 -5 0 -9 7 -9 15 0 8 4 15 9 15 4 0 8 -7 8 -15z"/>
<path d="M2437 2222 c-22 -4 -19 -37 3 -37 12 0 15 -20 17 -105 3 -123 6 -135
30 -122 14 8 17 27 17 118 1 78 4 109 13 109 20 0 37 22 23 30 -14 9 -76 13
-103 7z"/>
<path d="M2565 2218 c-2 -7 -3 -67 -2 -133 2 -115 3 -120 24 -123 21 -3 22 -1
22 126 1 110 -2 131 -15 136 -22 8 -24 8 -29 -6z"/>
<path d="M2662 2222 c-7 -5 -15 -19 -17 -33 -8 -39 -5 -174 3 -211 1 -3 15
-11 32 -16 24 -9 33 -7 52 7 20 17 22 27 22 122 1 86 -2 107 -16 121 -19 19
-54 23 -76 10z m48 -133 c0 -53 -4 -89 -10 -89 -11 0 -12 7 -15 100 -2 71 2
93 16 84 5 -3 9 -45 9 -95z"/>
<path d="M2792 2216 c-7 -9 -9 -209 -3 -248 1 -5 10 -8 21 -8 11 0 19 3 19 8
-1 4 0 27 1 52 l2 45 11 -50 c10 -40 17 -51 35 -53 l23 -3 -3 133 c-3 110 -6
133 -18 133 -11 0 -16 -15 -20 -55 l-5 -55 -14 56 c-13 54 -31 70 -49 45z"/>
<path d="M2948 2216 c-35 -26 -19 -102 29 -139 17 -14 23 -27 21 -46 -3 -26
-22 -32 -24 -8 -1 6 -2 17 -3 24 0 6 -10 9 -21 6 -27 -7 -27 -56 0 -81 42 -39
101 -4 95 58 -1 14 -3 31 -4 38 0 6 -13 22 -27 35 -33 28 -45 52 -38 71 8 22
24 10 24 -17 0 -16 6 -23 20 -23 19 0 21 3 24 36 5 48 -56 77 -96 46z"/>
<path d="M2870 3369 c0 -5 5 -7 10 -4 6 3 10 8 10 11 0 2 -4 4 -10 4 -5 0 -10
-5 -10 -11z"/>
<path d="M3233 2988 c-1 -10 3 -18 8 -18 6 0 7 5 4 10 -3 6 -1 10 4 10 6 0 11
4 11 8 0 17 -26 8 -27 -10z"/>
<path d="M1620 2954 c0 -9 40 -23 44 -15 3 5 -5 11 -19 13 -14 3 -25 4 -25 2z"/>
<path d="M1595 2940 c-3 -5 -1 -10 4 -10 6 0 11 5 11 10 0 6 -2 10 -4 10 -3 0
-8 -4 -11 -10z"/>
<path d="M1611 2111 c-9 -6 -7 -10 8 -14 12 -3 21 -1 21 3 0 14 -15 19 -29 11z"/>
<path d="M1674 1995 c-9 -14 -14 -28 -11 -32 4 -3 9 2 13 11 3 9 9 14 13 12 4
-3 8 4 8 15 2 25 -3 24 -23 -6z"/>
</g>
</svg>
